<svg xmlns="http://www.w3.org/2000/svg" width="20" height="20" viewBox="0 0 20 20" fill="none">
    <g clip-path="url(#clip0_2653_22903)">
        <path
            d="M17.6757 13.2421C17.1455 14.4959 16.3163 15.6006 15.2606 16.4599C14.2048 17.3191 12.9546 17.9067 11.6194 18.1711C10.2841 18.4356 8.90435 18.3689 7.60078 17.977C6.29722 17.585 5.10952 16.8797 4.14151 15.9227C3.17351 14.9657 2.45467 13.7861 2.04786 12.4871C1.64104 11.1881 1.55863 9.8092 1.80783 8.47099C2.05702 7.13278 2.63024 5.87599 3.47737 4.81049C4.32449 3.74499 5.41973 2.90323 6.66733 2.3588M17.6997 6.81144C18.0333 7.61682 18.2379 8.46827 18.3073 9.3345C18.3245 9.5485 18.3331 9.6555 18.2906 9.75188C18.2551 9.8324 18.1848 9.90859 18.1073 9.9504C18.0147 10.0005 17.8989 10.0005 17.6673 10.0005H10.6673C10.434 10.0005 10.3173 10.0005 10.2282 9.95505C10.1498 9.9151 10.086 9.85136 10.0461 9.77296C10.0007 9.68383 10.0007 9.56715 10.0007 9.3338V2.3338C10.0007 2.10224 10.0007 1.98646 10.0507 1.89378C10.0925 1.81636 10.1687 1.74604 10.2492 1.71054C10.3456 1.66805 10.4526 1.67663 10.6666 1.69378C11.5329 1.76323 12.3843 1.96787 13.1897 2.30147C14.2007 2.72026 15.1194 3.33409 15.8932 4.10791C16.667 4.88173 17.2809 5.80039 17.6997 6.81144Z"
            stroke="#1570EF" stroke-width="1.66667" stroke-linecap="round" stroke-linejoin="round" />
    </g>
    <defs>
        <clipPath id="clip0_2653_22903">
            <rect width="20" height="20" fill="white" />
        </clipPath>
    </defs>
</svg>