<svg width="16" height="16" viewBox="0 0 16 16" fill="none" xmlns="http://www.w3.org/2000/svg">
<path d="M8.45833 1.33333C8.45833 0.873096 8.08524 0.5 7.625 0.5C7.16476 0.5 6.79167 0.873096 6.79167 1.33333V7.16667H0.958333C0.498096 7.16667 0.125 7.53976 0.125 8C0.125 8.46024 0.498096 8.83333 0.958333 8.83333H6.79167V14.6667C6.79167 15.1269 7.16476 15.5 7.625 15.5C8.08524 15.5 8.45833 15.1269 8.45833 14.6667V8.83333H14.2917C14.7519 8.83333 15.125 8.46024 15.125 8C15.125 7.53976 14.7519 7.16667 14.2917 7.16667H8.45833V1.33333Z" fill="#1C1C1C"/>
</svg>
