<svg width="20" height="20" viewBox="0 0 20 20" fill="none" xmlns="http://www.w3.org/2000/svg">
<path d="M2.2388 13.0374L3.82896 12.1195C3.91509 12.0697 4.01617 12.0525 4.11392 12.0708L7.24267 12.6563C7.4998 12.7044 7.73715 12.5065 7.73599 12.2449L7.7238 9.50355C7.72347 9.42907 7.74311 9.35586 7.78068 9.29154L9.35962 6.58835C9.44179 6.44766 9.43443 6.27199 9.34077 6.13867L6.68227 2.35457M15.8334 4.04905C11.25 6.24987 13.7499 9.16654 14.5834 9.58321C16.1476 10.3652 18.3229 10.4165 18.3229 10.4165C18.3297 10.2785 18.3332 10.1396 18.3332 9.99984C18.3332 5.39746 14.6022 1.6665 9.99984 1.6665C5.39746 1.6665 1.6665 5.39746 1.6665 9.99984C1.6665 14.6022 5.39746 18.3332 9.99984 18.3332C10.1396 18.3332 10.2785 18.3297 10.4165 18.3229M13.9647 18.283L11.3257 11.3257L18.283 13.9647L15.1979 15.1979L13.9647 18.283Z" stroke="#667085" stroke-width="2" stroke-linecap="round" stroke-linejoin="round"/>
</svg>
