<svg xmlns="http://www.w3.org/2000/svg" width="17" height="16" viewBox="0 0 17 16" fill="none">
    <path
        d="M9.9987 1.51294V4.26663C9.9987 4.64 9.9987 4.82669 10.0714 4.96929C10.1353 5.09473 10.2373 5.19672 10.3627 5.26064C10.5053 5.3333 10.692 5.3333 11.0654 5.3333H13.8191M9.9987 11.3333H5.9987M11.332 8.66659H5.9987M13.9987 6.65874V11.4666C13.9987 12.5867 13.9987 13.1467 13.7807 13.5746C13.589 13.9509 13.283 14.2569 12.9067 14.4486C12.4789 14.6666 11.9188 14.6666 10.7987 14.6666H6.53203C5.41193 14.6666 4.85187 14.6666 4.42405 14.4486C4.04773 14.2569 3.74176 13.9509 3.55002 13.5746C3.33203 13.1467 3.33203 12.5867 3.33203 11.4666V4.53325C3.33203 3.41315 3.33203 2.85309 3.55002 2.42527C3.74176 2.04895 4.04773 1.74299 4.42405 1.55124C4.85187 1.33325 5.41193 1.33325 6.53203 1.33325H8.67321C9.1624 1.33325 9.40699 1.33325 9.63716 1.38851C9.84123 1.43751 10.0363 1.51831 10.2153 1.62797C10.4171 1.75166 10.5901 1.92461 10.936 2.27051L13.0614 4.39599C13.4073 4.7419 13.5803 4.91485 13.704 5.11668C13.8136 5.29563 13.8944 5.49072 13.9434 5.69479C13.9987 5.92496 13.9987 6.16955 13.9987 6.65874Z"
        stroke="#3861FB" stroke-width="1.5" stroke-linecap="round" stroke-linejoin="round" />
</svg>