<svg width="17" height="20" viewBox="0 0 17 20" fill="none" xmlns="http://www.w3.org/2000/svg">
<path d="M8.84242 0.833252C9.30266 0.833252 9.67576 1.20635 9.67576 1.66659V3.44282L10.8802 2.63988C11.2631 2.38458 11.7805 2.48806 12.0358 2.871C12.2911 3.25394 12.1876 3.77133 11.8047 4.02663L9.67576 5.4459V8.55654L12.3584 7.00773L12.4595 4.51042C12.4781 4.05056 12.866 3.69286 13.3258 3.71147C13.7857 3.73009 14.1434 4.11797 14.1248 4.57783L14.0663 6.02164L15.6426 5.11161C16.0411 4.88149 16.5508 5.01805 16.7809 5.41663C17.011 5.81521 16.8745 6.32487 16.4759 6.55498L14.9376 7.4431L16.2352 8.08468C16.6478 8.28867 16.8168 8.78849 16.6129 9.20105C16.4089 9.61361 15.9091 9.78269 15.4965 9.5787L13.2029 8.44464L10.509 9.99996L13.1917 11.5488L15.405 10.3877C15.8126 10.1739 16.3163 10.331 16.5301 10.7385C16.7439 11.1461 16.5868 11.6498 16.1793 11.8636L14.8997 12.5349L16.4759 13.4449C16.8745 13.6751 17.011 14.1847 16.7809 14.5833C16.5508 14.9819 16.0411 15.1184 15.6426 14.8883L14.1043 14.0002L14.1975 15.4447C14.2271 15.904 13.8788 16.3003 13.4195 16.33C12.9602 16.3596 12.5639 16.0113 12.5342 15.552L12.3696 12.9987L9.67576 11.4434V14.5539L11.8047 15.9732C12.1876 16.2285 12.2911 16.7459 12.0358 17.1288C11.7805 17.5118 11.2631 17.6153 10.8802 17.36L9.67576 16.557V18.3333C9.67576 18.7935 9.30266 19.1666 8.84242 19.1666C8.38219 19.1666 8.00909 18.7935 8.00909 18.3333V16.557L6.80467 17.36C6.42173 17.6153 5.90434 17.5118 5.64905 17.1288C5.39375 16.7459 5.49723 16.2285 5.88017 15.9732L8.00909 14.5539V11.4433L5.31512 12.9987L5.15045 15.552C5.12083 16.0113 4.72449 16.3596 4.26521 16.33C3.80592 16.3003 3.45761 15.904 3.48723 15.4447L3.5804 14.0002L2.04213 14.8883C1.64355 15.1184 1.1339 14.9819 0.903777 14.5833C0.673658 14.1847 0.810221 13.6751 1.2088 13.4449L2.74706 12.5568L1.44948 11.9152C1.03692 11.7113 0.867843 11.2114 1.07183 10.7989C1.27582 10.3863 1.77563 10.2172 2.1882 10.4212L4.48179 11.5553L7.17568 9.99996L4.48179 8.44464L2.1882 9.5787C1.77564 9.78269 1.27582 9.61361 1.07183 9.20105C0.867844 8.78849 1.03692 8.28867 1.44949 8.08468L2.74706 7.4431L1.2088 6.55498C0.810222 6.32486 0.673659 5.81521 0.903778 5.41663C1.1339 5.01805 1.64356 4.88149 2.04213 5.11161L3.5804 5.99973L3.48724 4.5552C3.45761 4.09591 3.80593 3.69958 4.26521 3.66996C4.72449 3.64034 5.12083 3.98865 5.15045 4.44793L5.31512 7.00127L8.00909 8.55663V5.45882L5.89691 4.12261C5.50796 3.87656 5.39213 3.3618 5.63818 2.97285C5.88423 2.58391 6.399 2.46808 6.78794 2.71413L8.00909 3.48665V1.66659C8.00909 1.20635 8.38219 0.833252 8.84242 0.833252Z" fill="#1C1C1C"/>
</svg>
