<svg width="20" height="20" viewBox="0 0 20 20" fill="none" xmlns="http://www.w3.org/2000/svg">
<g clip-path="url(#clip0_1510_28642)">
<path d="M0 9.99948C0 11.2227 0.220039 12.3944 0.621992 13.4777L10 13.9125L19.378 13.4778C19.78 12.3944 20 11.2227 20 9.99948C20 8.77627 19.78 7.60455 19.378 6.52123L10 6.08643L0.621992 6.52119C0.220039 7.60455 0 8.77627 0 9.99948Z" fill="#FFDA44"/>
<path d="M9.99959 -0.000976562C5.69994 -0.000976562 2.03451 2.71277 0.621582 6.52078H19.3776C17.9647 2.71277 14.2992 -0.000976562 9.99959 -0.000976562Z" fill="#D80027"/>
<path d="M19.3781 13.4785H0.62207C2.035 17.2865 5.70043 20.0003 10.0001 20.0003C14.2997 20.0003 17.9652 17.2865 19.3781 13.4785Z" fill="#496E2D"/>
<path d="M9.99996 6.52197L10.8632 9.179H13.6573L11.397 10.8213L12.2603 13.4785L9.99996 11.8363L7.73961 13.4785L8.60305 10.8213L6.34277 9.179H9.13668L9.99996 6.52197Z" fill="black"/>
</g>
<defs>
<clipPath id="clip0_1510_28642">
<rect width="20" height="20" fill="white"/>
</clipPath>
</defs>
</svg>
