<svg width="20" height="20" viewBox="0 0 20 20" fill="none" xmlns="http://www.w3.org/2000/svg">
<path d="M9.99984 5.00033V18.3337M9.99984 5.00033H7.05341C6.61927 5.00033 6.20292 4.82473 5.89594 4.51217C5.58896 4.19961 5.4165 3.77569 5.4165 3.33366C5.4165 2.89163 5.58896 2.46771 5.89594 2.15515C6.20292 1.84259 6.61927 1.66699 7.05341 1.66699C9.34508 1.66699 9.99984 5.00033 9.99984 5.00033ZM9.99984 5.00033H12.9463C13.3804 5.00033 13.7968 4.82473 14.1037 4.51217C14.4107 4.19961 14.5832 3.77569 14.5832 3.33366C14.5832 2.89163 14.4107 2.46771 14.1037 2.15515C13.7968 1.84259 13.3804 1.66699 12.9463 1.66699C10.6546 1.66699 9.99984 5.00033 9.99984 5.00033ZM16.6665 9.16699V15.667C16.6665 16.6004 16.6665 17.0671 16.4848 17.4236C16.3251 17.7372 16.0701 17.9922 15.7565 18.152C15.4 18.3337 14.9333 18.3337 13.9998 18.3337L5.99984 18.3337C5.06642 18.3337 4.59971 18.3337 4.24319 18.152C3.92958 17.9922 3.67462 17.7372 3.51483 17.4236C3.33317 17.0671 3.33317 16.6004 3.33317 15.667V9.16699M1.6665 6.33366L1.6665 7.83366C1.6665 8.30037 1.6665 8.53372 1.75733 8.71198C1.83723 8.86879 1.96471 8.99627 2.12151 9.07616C2.29977 9.16699 2.53313 9.16699 2.99984 9.16699L16.9998 9.16699C17.4665 9.16699 17.6999 9.16699 17.8782 9.07616C18.035 8.99627 18.1624 8.86879 18.2423 8.71198C18.3332 8.53373 18.3332 8.30037 18.3332 7.83366V6.33366C18.3332 5.86695 18.3332 5.63359 18.2423 5.45533C18.1624 5.29853 18.035 5.17105 17.8782 5.09115C17.6999 5.00033 17.4665 5.00033 16.9998 5.00033L2.99984 5.00033C2.53313 5.00033 2.29977 5.00033 2.12151 5.09115C1.96471 5.17105 1.83723 5.29853 1.75733 5.45533C1.6665 5.63359 1.6665 5.86695 1.6665 6.33366Z" stroke="#667085" stroke-width="2" stroke-linecap="round" stroke-linejoin="round"/>
</svg>
