<svg width="16" height="16" viewBox="0 0 16 16" fill="none" xmlns="http://www.w3.org/2000/svg">
<g clip-path="url(#clip0_1369_67364)">
<path d="M9.3666 3.99992C10.0178 4.12696 10.6162 4.44542 11.0853 4.91454C11.5544 5.38366 11.8729 5.9821 11.9999 6.63325M9.3666 1.33325C10.7195 1.48354 11.981 2.08937 12.9441 3.05126C13.9072 4.01315 14.5146 5.27393 14.6666 6.62659M6.81792 9.24196C6.01687 8.44091 5.38435 7.53515 4.92035 6.56874C4.88044 6.48561 4.86048 6.44405 4.84515 6.39145C4.79067 6.20455 4.8298 5.97505 4.94314 5.81676C4.97504 5.77222 5.01314 5.73411 5.08935 5.65791C5.32242 5.42483 5.43895 5.3083 5.51514 5.19111C5.80247 4.74919 5.80247 4.17947 5.51515 3.73754C5.43895 3.62035 5.32242 3.50382 5.08935 3.27075L4.95943 3.14084C4.60514 2.78654 4.42799 2.60939 4.23774 2.51316C3.85937 2.32178 3.41252 2.32178 3.03415 2.51316C2.84389 2.60939 2.66675 2.78654 2.31245 3.14084L2.20736 3.24593C1.85428 3.59901 1.67774 3.77555 1.54291 4.01557C1.39329 4.28191 1.28572 4.69557 1.28663 5.00105C1.28745 5.27635 1.34085 5.4645 1.44765 5.84079C2.02163 7.86306 3.10462 9.7713 4.6966 11.3633C6.28859 12.9553 8.19683 14.0383 10.2191 14.6122C10.5954 14.719 10.7835 14.7724 11.0588 14.7733C11.3643 14.7742 11.778 14.6666 12.0443 14.517C12.2843 14.3822 12.4609 14.2056 12.814 13.8525L12.9191 13.7474C13.2733 13.3931 13.4505 13.216 13.5467 13.0257C13.7381 12.6474 13.7381 12.2005 13.5467 11.8221C13.4505 11.6319 13.2733 11.4547 12.9191 11.1005L12.7891 10.9705C12.5561 10.7375 12.4395 10.6209 12.3223 10.5447C11.8804 10.2574 11.3107 10.2574 10.8688 10.5447C10.7516 10.6209 10.6351 10.7375 10.402 10.9705C10.3258 11.0467 10.2877 11.0849 10.2431 11.1167C10.0848 11.2301 9.85534 11.2692 9.66843 11.2147C9.61584 11.1994 9.57428 11.1795 9.49115 11.1395C8.52474 10.6755 7.61898 10.043 6.81792 9.24196Z" stroke="black" stroke-width="2" stroke-linecap="round" stroke-linejoin="round"/>
</g>
<defs>
<clipPath id="clip0_1369_67364">
<rect width="16" height="16" fill="white"/>
</clipPath>
</defs>
</svg>
