<svg width="16" height="17" viewBox="0 0 16 17" fill="none" xmlns="http://www.w3.org/2000/svg">
<path d="M5.99935 7.5L7.33268 8.83333L10.3327 5.83333M13.3327 14.5V5.7C13.3327 4.5799 13.3327 4.01984 13.1147 3.59202C12.9229 3.21569 12.617 2.90973 12.2407 2.71799C11.8128 2.5 11.2528 2.5 10.1327 2.5H5.86602C4.74591 2.5 4.18586 2.5 3.75803 2.71799C3.38171 2.90973 3.07575 3.21569 2.884 3.59202C2.66602 4.01984 2.66602 4.5799 2.66602 5.7V14.5L4.49935 13.1667L6.16602 14.5L7.99935 13.1667L9.83268 14.5L11.4993 13.1667L13.3327 14.5Z" stroke="#475467" stroke-width="2" stroke-linecap="round" stroke-linejoin="round"/>
</svg>
