<svg width="20" height="20" viewBox="0 0 20 20" fill="none" xmlns="http://www.w3.org/2000/svg">
<g clip-path="url(#clip0_4041_37549)">
<path d="M4.99984 5.00033L6.6665 3.33366M6.6665 3.33366L4.99984 1.66699M6.6665 3.33366H4.99984C3.15889 3.33366 1.6665 4.82604 1.6665 6.66699M14.9998 15.0003L13.3332 16.667M13.3332 16.667L14.9998 18.3337M13.3332 16.667H14.9998C16.8408 16.667 18.3332 15.1746 18.3332 13.3337M8.49069 5.41699C9.04575 3.26046 11.0034 1.66699 13.3332 1.66699C16.0946 1.66699 18.3332 3.90557 18.3332 6.66699C18.3332 8.99677 16.7397 10.9544 14.5832 11.5095M11.6665 13.3337C11.6665 16.0951 9.42793 18.3337 6.6665 18.3337C3.90508 18.3337 1.6665 16.0951 1.6665 13.3337C1.6665 10.5722 3.90508 8.33366 6.6665 8.33366C9.42793 8.33366 11.6665 10.5722 11.6665 13.3337Z" stroke="#667085" stroke-width="2" stroke-linecap="round" stroke-linejoin="round"/>
</g>
<defs>
<clipPath id="clip0_4041_37549">
<rect width="20" height="20" fill="white"/>
</clipPath>
</defs>
</svg>
