<svg width="12" height="12" viewBox="0 0 12 12" fill="none" xmlns="http://www.w3.org/2000/svg">
<path d="M2.25071 0.696715C1.92528 0.371278 1.39764 0.371277 1.0722 0.696715C0.746766 1.02215 0.746766 1.54979 1.0722 1.87523L5.19699 6.00002L1.0722 10.1248C0.746766 10.4502 0.746766 10.9779 1.0722 11.3033C1.39764 11.6288 1.92528 11.6288 2.25071 11.3033L6.3755 7.17853L10.5003 11.3033C10.8257 11.6288 11.3534 11.6288 11.6788 11.3033C12.0042 10.9779 12.0042 10.4502 11.6788 10.1248L7.55402 6.00002L11.6788 1.87523C12.0042 1.54979 12.0042 1.02215 11.6788 0.696715C11.3534 0.371278 10.8257 0.371278 10.5003 0.696715L6.3755 4.8215L2.25071 0.696715Z" fill="#CB1A14"/>
</svg>
