<svg width="20" height="20" viewBox="0 0 20 20" fill="none" xmlns="http://www.w3.org/2000/svg">
<path d="M7.50016 8.75L9.16683 10.4167L12.9168 6.66667M16.6668 17.5V6.5C16.6668 5.09987 16.6668 4.3998 16.3943 3.86502C16.1547 3.39462 15.7722 3.01217 15.3018 2.77248C14.767 2.5 14.067 2.5 12.6668 2.5H7.3335C5.93336 2.5 5.2333 2.5 4.69852 2.77248C4.22811 3.01217 3.84566 3.39462 3.60598 3.86502C3.3335 4.3998 3.3335 5.09987 3.3335 6.5V17.5L5.62516 15.8333L7.7085 17.5L10.0002 15.8333L12.2918 17.5L14.3752 15.8333L16.6668 17.5Z" stroke="#667085" stroke-width="2" stroke-linecap="round" stroke-linejoin="round"/>
</svg>
