<svg width="16" height="16" viewBox="0 0 16 16" fill="none" xmlns="http://www.w3.org/2000/svg">
<path d="M11.3335 2L8.00016 4.66667L4.66683 2M4.5335 14H11.4668C12.5869 14 13.147 14 13.5748 13.782C13.9511 13.5903 14.2571 13.2843 14.4488 12.908C14.6668 12.4802 14.6668 11.9201 14.6668 10.8V7.86667C14.6668 6.74656 14.6668 6.18651 14.4488 5.75869C14.2571 5.38236 13.9511 5.0764 13.5748 4.88465C13.147 4.66667 12.5869 4.66667 11.4668 4.66667H4.5335C3.41339 4.66667 2.85334 4.66667 2.42552 4.88465C2.04919 5.0764 1.74323 5.38236 1.55148 5.75869C1.3335 6.18651 1.3335 6.74656 1.3335 7.86667V10.8C1.3335 11.9201 1.3335 12.4802 1.55148 12.908C1.74323 13.2843 2.04919 13.5903 2.42552 13.782C2.85334 14 3.41339 14 4.5335 14Z" stroke="black" stroke-width="2" stroke-linecap="round" stroke-linejoin="round"/>
</svg>
